<svg xmlns="http://www.w3.org/2000/svg" viewBox="0 0 128 36.09"><defs><linearGradient id="未命名的渐变_27" x1="7.78" y1="36.09" x2="7.78" gradientUnits="userSpaceOnUse"><stop offset="0" stop-color="#fe9500"/><stop offset="1" stop-color="#fece22"/></linearGradient><style>.cls-5{fill:#fff}.cls-4{fill:none}.cls-6{fill:#333}</style></defs><g id="图层_2" data-name="图层 2"><g id="图层_1-2" data-name="图层 1"><path id="盾1" d="M30.88 20.76C29.75 30 15.56 36.09 15.56 36.09S1.12 30 0 20.75V3.05L15.56 0l15.32 3.06z" style="fill:#ff8400"/><path d="M0 3.05v17.7C1.12 30 15.56 36.08 15.56 36.09V0z" style="fill:url(#未命名的渐变_27)"/><path d="M18.27 17.58s1.89 5.47-.7 8.64c0 0 13-5.1 2.56-11z" style="opacity:.6;fill:#fff"/><path class="cls-4" d="M15.56 0L0 3.05v17.7c.55 4.5 4.25 8.25 7.9 10.92a10.4 10.4 0 01.27-14.35L14.4 11a9.65 9.65 0 002.85-6.1 11.09 11.09 0 01.95 16.57l-5.63 5.71a11.83 11.83 0 00-3.29 5.5c.91.61 1.8 1.14 2.61 1.6a8.87 8.87 0 012.49-4.84l4.71-4.78A9 9 0 0022 18a8.67 8.67 0 00-.15-1.63 10.39 10.39 0 011.61 15c3.47-2.65 6.89-6.29 7.42-10.64V3.06z"/><path class="cls-5" d="M18.2 21.42a11.09 11.09 0 00-.95-16.57A9.65 9.65 0 0114.4 11l-6.23 6.32a10.4 10.4 0 00-.27 14.35c.46.34.93.66 1.38 1a11.83 11.83 0 013.29-5.5z"/><path class="cls-5" d="M21.85 16.36A8.67 8.67 0 0122 18a9 9 0 01-2.92 6.62l-4.71 4.78a8.87 8.87 0 00-2.49 4.84 40.5 40.5 0 003.67 1.86 42.58 42.58 0 007.9-4.69 10.39 10.39 0 00-1.61-15zM15.56 36.09L15.56 36.09 15.56 36.09 15.56 36.09z"/><path class="cls-4" d="M101.18 14.54V11.7h-9.54v2.84c0 .27.15.42.5.57l4.27 1.81 4.28-1.81c.31-.11.49-.3.49-.57zM112.73 29.37a1 1 0 00-.11-.47.79.79 0 00-.3-.3 1.44 1.44 0 00-.47-.18 3.64 3.64 0 00-.6-.05h-1.07v2h1a2.17 2.17 0 001.12-.24.83.83 0 00.43-.76zM63.53 29.37a.86.86 0 00-.11-.47.83.83 0 00-.29-.3 1.54 1.54 0 00-.47-.18 3.76 3.76 0 00-.61-.05H61v2h1a2.13 2.13 0 001.11-.24.83.83 0 00.42-.76zM55.71 28.27H55a1.27 1.27 0 00-1.34 1.19V32A1.27 1.27 0 0055 33.13h.69A1.28 1.28 0 0057.06 32v-2.44a1.37 1.37 0 00-1.35-1.29zM68.59 28.27h-.69a1.27 1.27 0 00-1.34 1.19V32a1.27 1.27 0 001.34 1.18h.69A1.28 1.28 0 0069.94 32v-2.44a1.37 1.37 0 00-1.35-1.29z"/><path class="cls-6" d="M60.9 18.85h-1.83a1.12 1.12 0 01-.94-.44L54.83 14h-2.19a2.8 2.8 0 00.28-1.1V2.45h-3.34v10a1.11 1.11 0 01-.34.69l-4.55 5.15a1.66 1.66 0 01-1.26.52h-2l.44 2.6h3a3 3 0 002.45-1.1l4.42-5.26L55 20a3.25 3.25 0 002.88 1.44h3z"/><path class="cls-6" d="M46.49 12.37c-.93-2.61-1.72-5-2.34-7.15h-2.72a92.21 92.21 0 002.06 7.15zM60.7 5.22h-2.81q-1.12 4.16-2.25 7.15h2.91q.84-2.58 2.15-7.15zM72.81 8.21v3.36h-1.3v2.61h1.3v4a.72.72 0 01-.16.5.62.62 0 01-.54.2h-7.7v2.61h9c1.42-.09 2.21-.72 2.36-1.9v-5.41h1.35v-2.61h-1.31V8.21z"/><path class="cls-6" d="M65.62 12H67l-2.25 3.84c-.4 1.19 0 1.87 1.27 2.06h4.9l.78-2.25h-4l4.8-8.34h-2.86l-1.38 2.42H66.4l4-7.23h-2.82l-3.53 6.85c-.59 1.56-.05 2.44 1.57 2.65z"/><path class="cls-6" d="M80.23 6.83h2.15q1.7 0 1.38-2.46l-.38-1.86h-2.5l.28 1.69h-1.25l-.28-1.83h-2.88l.16 1.83H72v2.63h5.19l1.3 7.2-1.64 1.27v3.25l2.3-1.72.9 4.62h3l-1.38-6.51L84 13.1V9.93l-2.92 2.22zM120.09 18.76V15.7h6.44V13h-6.44v-2.57h7.51V8h-18.35v2.4h7.51V13h-6.44v2.7h6.44v3.06h-7.93v2.69H128v-2.69zM113.08 6.92l1.28-1.81s.07-.16.34-.16h7.45c.27 0 .34.16.34.16l1.27 1.81c.29.4 1.1.43 1.1.43h2.3V4.86h-1a1.17 1.17 0 01-.84-.54l-1.08-1.67a.33.33 0 00-.34-.21H113a.32.32 0 00-.33.21l-1.08 1.67a1.17 1.17 0 01-.84.54h-1.06v2.49H112s.8-.03 1.08-.43zM100.77 21.45h5.14v-2.29h-3.82a9.61 9.61 0 01-2.49-.57l3.74-1.38a1.36 1.36 0 001-1.29V11.7h1.58V9.35h-1.58V8.21h-3.15v1.14h-9.55V8.21h-3.15v1.14h-1.57v2.35h1.57v4.22a1.37 1.37 0 001 1.29l3.73 1.38a9.43 9.43 0 01-2.49.57h-3.81v2.29h5.14a3.35 3.35 0 001.58-.24L96.41 20l2.79 1.24a3.3 3.3 0 001.57.21zm-8.63-6.34c-.35-.15-.5-.3-.5-.57V11.7h9.54v2.84c0 .27-.14.42-.49.57l-4.28 1.81zM90.38 6h12.07l-.25 1.28h3l.3-1.75c.23-2.2-1.65-2-1.65-2h-5.96V2.41h-3v1.13h-7.54v3.91h3zM45.23 30.29L42.27 30.29 42.27 27.7 41.43 27.7 41.43 33.91 42.27 33.91 42.27 31.08 45.23 31.08 45.23 33.91 46.08 33.91 46.08 27.7 45.23 27.7 45.23 30.29zM75.64 32.57L72.68 27.7 71.84 27.7 71.84 33.91 72.68 33.91 72.68 29 75.64 33.91 76.48 33.91 76.48 27.7 75.64 27.7 75.64 32.57zM91.98 33.91L96.03 33.91 96.03 33.14 92.82 33.14 92.82 31.06 95.72 31.06 95.72 30.29 92.82 30.29 92.82 28.48 96.03 28.48 96.03 27.7 91.98 27.7 91.98 33.91zM114.91 27.7H115.75V33.9H114.91zM116.95 28.48L118.92 28.48 118.92 33.91 119.76 33.91 119.76 28.48 121.73 28.48 121.73 27.7 116.95 27.7 116.95 28.48zM125.48 30.29L123.93 27.7 122.93 27.7 125.05 31.24 125.05 33.91 125.89 33.91 125.89 31.24 128 27.7 127.05 27.7 125.48 30.29zM68.67 27.49h-.84a2 2 0 00-2.11 1.87V32a2 2 0 002.11 1.87h.84A2 2 0 0070.78 32v-2.64a2 2 0 00-2.11-1.87zM69.94 32a1.28 1.28 0 01-1.35 1.18h-.69A1.27 1.27 0 0166.56 32v-2.54a1.27 1.27 0 011.34-1.19h.69a1.37 1.37 0 011.35 1.29V32zM55.79 27.49H55a2 2 0 00-2.11 1.87V32A2 2 0 0055 33.91h.84A2 2 0 0057.9 32v-2.64a2 2 0 00-2.11-1.87zM57.06 32a1.28 1.28 0 01-1.35 1.18H55A1.27 1.27 0 0153.68 32v-2.54A1.27 1.27 0 0155 28.27h.69a1.37 1.37 0 011.35 1.29V32zM107.31 32a1.28 1.28 0 01-1.31 1.13h-.26a1.28 1.28 0 01-1.39-1.13v-4.3h-.84V32a2 2 0 002.11 1.87h.38a2 2 0 002.15-1.87v-4.3h-.84zM50.94 32a1.28 1.28 0 01-1.35 1.18h-.27A1.27 1.27 0 0148 32v.1-4.35h-.85V32a2 2 0 002.12 1.87h.42A2 2 0 0051.78 32v-4.3h-.84zM100.34 27.49h-.84a2 2 0 00-2.11 1.87V32a2 2 0 002.11 1.87h.84a2 2 0 002.11-1.87v-.28h-.84V32a1.28 1.28 0 01-1.35 1.18h-.69A1.27 1.27 0 0198.23 32v-2.54a1.27 1.27 0 011.34-1.19h.69a1.37 1.37 0 011.35 1.29v.09h.84v-.29a2 2 0 00-2.11-1.87zM111.13 31.19L112.74 33.91 113.72 33.91 112.05 31.19 111.13 31.19z"/><path class="cls-6" d="M111.91 31a2.42 2.42 0 00.63-.16 1.56 1.56 0 00.5-.33 1.53 1.53 0 00.45-1.11 1.79 1.79 0 00-.15-.77 1.39 1.39 0 00-.45-.51 1.94 1.94 0 00-.67-.29 3.76 3.76 0 00-.85-.09h-2v6.21h.84V31h1zm-1.73-.61v-2h1.07a3.64 3.64 0 01.6.05 1.44 1.44 0 01.47.18.79.79 0 01.3.3 1 1 0 01.11.47.83.83 0 01-.39.74 2.17 2.17 0 01-1.12.24zM61.94 31.19L63.54 33.91 64.53 33.91 62.86 31.19 61.94 31.19z"/><path class="cls-6" d="M62.71 31a2.42 2.42 0 00.63-.16 1.45 1.45 0 00.5-.33 1.72 1.72 0 00.34-.49 1.52 1.52 0 00.12-.62 1.65 1.65 0 00-.16-.77 1.28 1.28 0 00-.44-.51 2 2 0 00-.68-.29 3.73 3.73 0 00-.84-.09h-2v6.21H61V31h1zM61 30.35v-2h1.06a3.76 3.76 0 01.61.05 1.54 1.54 0 01.47.18.83.83 0 01.29.3.86.86 0 01.11.47.83.83 0 01-.39.74 2.13 2.13 0 01-1.11.24zM80.49 27.49h-.84a2 2 0 00-2.11 1.87V32a2 2 0 002.11 1.87h.84A2 2 0 0082.6 32v-1.3h-2.23v.76h1.39V32a1.27 1.27 0 01-1.34 1.18h-.69A1.28 1.28 0 0178.38 32v-2.54a1.28 1.28 0 011.35-1.19h.69a1.36 1.36 0 011.34 1.29v.09h.84v-.29a2 2 0 00-2.11-1.87zM88.84 30.37h-1c-.51 0-.82-.37-.83-.95s.32-.94.83-.94h2.26v-.78h-2.33a1.58 1.58 0 00-1.48 1.67v.09a1.58 1.58 0 001.48 1.67h.89a1 1 0 01.94 1 1 1 0 01-1 1h-2.09v.77h2.33a1.59 1.59 0 001.49-1.68v-.08a1.7 1.7 0 00-1.49-1.77z"/></g></g></svg>