<svg width="30" height="30" xmlns="http://www.w3.org/2000/svg"><g fill="none" fill-rule="evenodd"><g fill="#666"><path d="M14.99 0l9.92 1.98v11.47c-.395 3.245-3.276 5.887-5.831 7.627l-.475.316-.233.15-.456.283-.438.26-.415.238-.39.215-.526.278-.444.224-.711.332-.369-.165-.646-.31-.696-.36-.396-.215-.423-.238-.445-.262-.464-.283-.477-.305a25.493 25.493 0 01-.733-.498l-.494-.357L9.355 20c-2.048-1.617-3.97-3.75-4.398-6.257l-.044-.302V1.973L14.99 0zm-.005 2.038L6.911 3.62l.001 9.675.02.13c.302 1.718 1.689 3.5 3.893 5.186l.292.22a25.45 25.45 0 003.22 2.004l.284.148.363.18.345-.175.279-.147a24.943 24.943 0 003.166-2.003c2.33-1.748 3.803-3.608 4.118-5.406l.018-.123v-9.69l-7.925-1.581z" fill-rule="nonzero" transform="translate(0 3.5)"/><path d="M16.864 11.785s1.106 3.144-.573 5.199c0 0 8.415-3.307 1.66-7.11l-1.087 1.91z" opacity=".7" transform="translate(0 3.5)"/><path d="M16.7 13.873a7.166 7.166 0 002.12-5.095 7.167 7.167 0 00-2.736-5.64 6.271 6.271 0 01-1.843 3.955l-4.037 4.123a6.727 6.727 0 00-1.949 4.742 6.71 6.71 0 001.776 4.556c.3.218.597.425.891.62a7.721 7.721 0 012.132-3.564l3.646-3.697zM19.162 11.65c0 1.7-.73 3.23-1.894 4.293l-3.047 3.092a5.816 5.816 0 00-1.61 3.135 33.21 33.21 0 002.3 1.203s2.662-1.106 5.197-3.036a6.708 6.708 0 001.618-4.38 6.724 6.724 0 00-2.662-5.363c.063.343.098.695.098 1.056zM24.913 4.802c2.797.31 4.059 1.458 3.785 3.446 1.004-2.521-.257-4.067-3.785-4.636v1.19z" transform="translate(0 3.5)"/><path d="M4.94 9.483c-2.924 1.793-7.064 5.986-3.66 8.234 3.404 2.249 11.904.548 17.557-2.051-2.405.792-9.768 3.239-13.361 1.268-1.743-1.122-1.922-2.54-.536-4.252v-3.2z" transform="translate(0 3.5)"/></g></g></svg>