<svg width="30" height="30" xmlns="http://www.w3.org/2000/svg"><g fill="none" fill-rule="evenodd"><g fill="#666"><path d="M10.079 0l9.92 1.98v11.47c-.42 3.448-3.673 6.215-6.356 7.943l-.467.294-.45.272-.431.25-.407.226-.193.104-.53.278-.449.224-.717.332-.365-.165-.491-.236-.31-.155-.53-.279-.6-.331-.43-.25-.451-.272a27.802 27.802 0 01-.232-.145l-.474-.305C3.562 19.55.593 16.953.045 13.745L0 13.441 0 1.973 10.079 0zm-.006 2.038L1.999 3.62 2 13.295l.02.13c.314 1.793 1.792 3.648 4.12 5.385l.296.217c.971.7 2.005 1.325 3.029 1.864l.263.136.271.137.355-.179.28-.147a25.19 25.19 0 003.195-2.003c2.35-1.748 3.835-3.608 4.151-5.403l.018-.123v-9.69l-7.925-1.581z" fill-rule="nonzero" transform="translate(5 3.5)"/><path d="M11.952 11.785s1.106 3.144-.573 5.199c0 0 8.415-3.307 1.66-7.11l-1.087 1.91z" opacity=".7" transform="translate(5 3.5)"/><path d="M11.788 13.873a7.166 7.166 0 002.12-5.095 7.167 7.167 0 00-2.736-5.64A6.271 6.271 0 019.33 7.094l-4.037 4.123a6.727 6.727 0 00-1.949 4.742 6.71 6.71 0 001.776 4.556c.299.218.597.425.891.62a7.721 7.721 0 012.131-3.564l3.647-3.697zM14.25 11.65c0 1.7-.73 3.23-1.895 4.293L9.31 19.035A5.816 5.816 0 007.7 22.17a33.21 33.21 0 002.3 1.203s2.661-1.106 5.197-3.036a6.708 6.708 0 001.618-4.38 6.724 6.724 0 00-2.662-5.363c.063.343.098.695.098 1.056z" transform="translate(5 3.5)"/></g></g></svg>