<svg width="30" height="30" xmlns="http://www.w3.org/2000/svg"><g fill="none" fill-rule="evenodd"><g fill="#666" fill-rule="nonzero"><path d="M15.936 8.284a.99.99 0 01-.337.932.995.995 0 01-1.618-.583c-.218-1.214-.986-2.061-2.085-2.275a.99.99 0 01.38-1.944c1.94.377 3.303 1.882 3.66 3.87zM12.352.015c3.978.702 6.817 3.728 7.63 7.837a.993.993 0 01-1.948.383c-.66-3.338-2.892-5.716-6.028-6.27a.99.99 0 11.346-1.95zM15.015 20c-.36 0-.698-.057-1-.167-.39-.104-3.72-1.1-8.233-5.615C1.406 9.844.308 6.401.189 5.996c-.204-.513-.245-1.138-.113-1.76.132-.624.427-1.189.827-1.59L2.605.946a2.05 2.05 0 011.451-.62c.621 0 1.206.297 1.607.813L8.155 4.35c.42.541.47 1.425.117 2.014L7.055 8.38c.115.38.511 1.325 1.845 2.739 1.483 1.405 2.406 1.754 2.709 1.834l2.026-1.224c.247-.15.568-.231.901-.231.42 0 .825.125 1.111.346l3.213 2.494c.485.377.771.903.808 1.484.037.58-.182 1.139-.615 1.572l-1.7 1.7c-.556.558-1.453.905-2.338.905z" transform="translate(5 5)"/></g></g></svg>