<?xml version="1.0" encoding="UTF-8"?>
<svg width="30px" height="30px" viewBox="0 0 30 30" version="1.1" xmlns="http://www.w3.org/2000/svg" xmlns:xlink="http://www.w3.org/1999/xlink">
    <title>icon-企业下载-默认</title>
    <g id="页面-1" stroke="none" stroke-width="1" fill="none" fill-rule="evenodd">
        <g id="icon-企业下载-默认">
            <rect id="矩形" fill-opacity="0.2" fill="#FF0000" opacity="0" x="0" y="0" width="30" height="30"></rect>
            <g transform="translate(0.000000, 3.500000)" fill="#ffffff">
                <path d="M14.9906996,0 L24.9109018,1.97963453 L24.9109018,13.4497132 C24.5150672,16.6950054 21.6343554,19.3374423 19.0785248,21.0772335 L18.6037997,21.3927932 C18.5255421,21.4435991 18.4477732,21.4935053 18.3705788,21.5425025 L17.9149926,21.8255052 L17.4773104,22.0862543 L17.0616481,22.3243106 L16.6721216,22.539235 L16.1458398,22.8172886 L15.7015151,23.0408252 L14.9906996,23.3731836 L14.6219876,23.2081238 L13.9760093,22.8972644 L13.2799661,22.5380989 L12.8837196,22.3229042 L12.460913,22.0845569 L12.0157384,21.8234985 L11.552388,21.5401703 L11.0750542,21.2350139 C10.8335902,21.0770523 10.5884544,20.9110706 10.3420051,20.7373173 L9.84805377,20.3795219 L9.35479185,20.0014435 C7.3067927,18.3844737 5.38592043,16.2507971 4.95684035,13.7441248 L4.91259868,13.4415429 L4.91205399,1.97334037 L14.9906996,0 Z M14.985054,2.038 L6.91105399,3.62 L6.91205399,13.295 L6.93133008,13.4244958 C7.23377015,15.1425122 8.62085978,16.9246807 10.8245489,18.6108969 L11.1165956,18.8302809 C12.1345785,19.5812017 13.2356991,20.2543501 14.337554,20.8351095 L14.621284,20.9825493 L14.984054,21.163 L15.3286532,20.988272 L15.607503,20.8410148 C16.6906842,20.2608207 17.7731927,19.588231 18.7739805,18.8378427 C21.1044763,17.0904423 22.5766237,15.2304244 22.8922118,13.4320297 L22.910054,13.309 L22.910054,3.619 L14.985054,2.038 Z" id="路径备份-3" fill-rule="nonzero"></path>
                <path d="M16.8636541,11.784696 C16.8636541,11.784696 17.9702765,14.9287502 16.2905829,16.9835515 C16.2905829,16.9835515 24.7059361,13.6768174 17.9517571,9.87369198 L16.8636541,11.784696 Z" id="Fill-3备份-3" opacity="0.7"></path>
                <path d="M16.700242,13.8733163 C18.0093063,12.5706671 18.8199821,10.7689637 18.8199821,8.77789074 C18.8199821,6.49062912 17.7503985,4.45331829 16.0842616,3.13850447 C15.9592862,4.68093692 15.2780038,6.06607589 14.2411619,7.09311343 L10.2041236,11.2163333 C8.99945763,12.4364926 8.25529419,14.1101341 8.25529419,15.9577123 C8.25529419,17.7151145 8.92876936,19.3149812 10.0312158,20.5141398 C10.3300674,20.7320751 10.6283743,20.9389351 10.9220816,21.1340541 C11.2985208,19.7540594 12.0461944,18.5273033 13.0535022,17.5700462 L16.700242,13.8733163 Z" id="Fill-5备份-3"></path>
                <path d="M19.1618821,11.6498073 C19.1618821,13.3502594 18.4314569,14.8798615 17.2675214,15.9427273 L14.2212082,19.0348547 C13.3926788,19.8695573 12.8143423,20.9562683 12.6107504,22.1700124 C13.9864481,22.9498226 14.9113871,23.3731654 14.9115081,23.3731654 C14.9119318,23.3729838 17.5725461,22.2673298 20.1076403,20.3367171 C21.1164005,19.1591644 21.7260868,17.629865 21.7260868,15.9577365 C21.7260868,13.7688816 20.6818008,11.8242281 19.0644437,10.5940223 C19.1273248,10.9365699 19.1618821,11.2890429 19.1618821,11.6498073 Z" id="Fill-7备份-3"></path>
                <path d="M24.9127619,4.80163193 C27.7099486,5.11160088 28.9716998,6.26037502 28.6980156,8.24795437 C29.7022906,5.72690582 28.4405394,4.18143368 24.9127619,3.61153793 C24.9127619,3.61153793 24.9127619,4.07910299 24.9127619,4.80163193 Z" id="路径-2"></path>
                <path d="M4.93965689,9.48280811 C2.01595656,11.2758312 -2.12397607,15.4689188 1.27983157,17.7172251 C4.68363921,19.9655313 13.1844241,18.2650127 18.8373591,15.6659136 C16.4322497,16.4582443 9.06899325,18.9045753 5.47550742,16.933917 C3.73272927,15.8115009 3.55411243,14.3941274 4.93965689,12.6817966 C4.93965689,12.3467887 4.93965689,11.2804592 4.93965689,9.48280811 Z" id="路径-3"></path>
            </g>
        </g>
    </g>
</svg>