<svg width="32" height="32" viewBox="0 0 32 32" fill="none" xmlns="http://www.w3.org/2000/svg">
<path fill-rule="evenodd" clip-rule="evenodd" d="M27.866 15.9998C27.866 22.5536 22.5531 27.8665 15.9993 27.8665C9.44557 27.8665 4.13268 22.5536 4.13268 15.9998C4.13268 9.44606 9.44557 4.13317 15.9993 4.13317C22.5531 4.13317 27.866 9.44606 27.866 15.9998ZM29.3327 15.9998C29.3327 23.3636 23.3631 29.3332 15.9993 29.3332C8.63555 29.3332 2.66602 23.3636 2.66602 15.9998C2.66602 8.63604 8.63555 2.6665 15.9993 2.6665C23.3631 2.6665 29.3327 8.63604 29.3327 15.9998ZM14.6641 17.9332C14.6641 17.9557 14.6651 17.9779 14.6671 17.9999C14.6651 18.0218 14.6641 18.0441 14.6641 18.0665C14.6641 18.4715 14.9924 18.7999 15.3974 18.7999H23.2641C23.6691 18.7999 23.9974 18.4715 23.9974 18.0665C23.9974 17.6615 23.6691 17.3332 23.2641 17.3332H16.1307V10.0665C16.1307 9.66152 15.8024 9.33319 15.3974 9.33319C14.9924 9.33319 14.6641 9.66151 14.6641 10.0665V17.9332Z" fill="#333333"/>
</svg>
