<svg width="40" height="40" viewBox="0 0 40 40" fill="none" xmlns="http://www.w3.org/2000/svg">
<path d="M27.9168 23.2815L35.0213 16.0381C36.3262 14.5894 36.3262 12.5613 35.0213 11.1126L27.9168 3.86921C27.6269 3.57947 27.1919 3.28974 26.7569 3.14487C26.6119 3 26.032 3 25.597 3C25.0171 3 24.7271 3 24.4371 3.14487C24.1471 3.28974 23.5672 3.4346 23.2772 3.86921L16.1727 11.4023L2.97868 24.7301C1.67377 26.1788 1.67377 28.207 2.97868 29.6556L10.0832 36.899C10.6631 37.4785 11.533 37.7682 12.258 37.7682H32.7015V36.0298H15.5928L27.9168 23.2815ZM13.5629 35.4503C13.4179 35.7401 12.838 36.0298 12.548 36.0298H12.403C12.113 36.0298 11.533 35.8849 11.2431 35.4503L4.13859 28.207C3.9936 27.9172 3.84861 27.4826 3.84861 27.048C3.84861 26.4685 3.9936 26.1788 4.42857 25.8891L15.5928 14.5894C15.5928 15.3137 15.8827 15.7483 16.4627 16.3278L23.5672 23.5712C24.1471 24.1507 24.5821 24.2955 25.1621 24.4404L13.5629 35.4503Z" fill="url(#paint0_linear_141_276)"/>
<defs>
<linearGradient id="paint0_linear_141_276" x1="2" y1="43.2318" x2="37.7635" y2="7.23558" gradientUnits="userSpaceOnUse">
<stop stop-color="#93F4E1" stop-opacity="0"/>
<stop offset="1" stop-color="#13D79E" stop-opacity="0.51"/>
</linearGradient>
</defs>
</svg>
