<svg width="40" height="40" viewBox="0 0 40 40" fill="none" xmlns="http://www.w3.org/2000/svg">
<g clip-path="url(#clip0_141_282)">
<rect x="13.333" y="11.667" width="22.4242" height="28.4848" rx="4.84848" fill="#FFA924"/>
<path d="M14.469 15.35H17.0266V30.8511H14.4647L14.469 15.35ZM22.9758 15.35H25.5377V30.8511H22.9758V15.35ZM9.16729 0H30.847V2.5619H9.16729V0ZM2.50098 6.19681H37.5004V8.75871H2.50098V6.19681Z" fill="black"/>
<path d="M29.0847 39.9986H10.922C9.57103 39.9978 8.27563 39.4607 7.32034 38.5054C6.36505 37.5501 5.828 36.2547 5.82715 34.9037V7.47852H8.38905V34.9037C8.38934 35.5754 8.65629 36.2195 9.13125 36.6945C9.60621 37.1695 10.2503 37.4364 10.922 37.4367H29.0837C29.7554 37.4364 30.3995 37.1695 30.8744 36.6945C31.3494 36.2195 31.6163 35.5754 31.6166 34.9037V7.47852H34.1785V34.9037C34.1777 36.2545 33.6408 37.5498 32.6857 38.505C31.7307 39.4603 30.4355 39.9975 29.0847 39.9986Z" fill="#060606"/>
</g>
<defs>
<clipPath id="clip0_141_282">
<rect width="40" height="40" fill="white"/>
</clipPath>
</defs>
</svg>
