<svg width="40" height="40" viewBox="0 0 40 40" fill="none" xmlns="http://www.w3.org/2000/svg">
<rect x="20" y="14.167" width="16.6667" height="22.5" rx="3.33333" fill="#FFA924"/>
<path d="M11.7105 2.5V5.26316H6.64474C5.92658 5.26316 5.33643 5.81104 5.26946 6.51168L5.26316 6.64474V33.3553C5.26316 34.0734 5.81104 34.6636 6.51168 34.7305L6.64474 34.7368H33.3553C34.0734 34.7368 34.6636 34.189 34.7305 33.4883L34.7368 33.3553V6.64474C34.7368 5.92658 34.189 5.33643 33.4883 5.26946L33.3553 5.26316H28.2895V2.5H33.3553C35.579 2.5 37.3936 4.25115 37.4955 6.44959L37.5 6.64474V33.3553C37.5 35.579 35.7488 37.3936 33.5504 37.4955L33.3553 37.5H6.64474C4.42104 37.5 2.60638 35.7488 2.50449 33.5504L2.5 33.3553V6.64474C2.5 4.42104 4.25115 2.60638 6.44959 2.50449L6.64474 2.5H11.7105ZM21.8421 2.5V23.1113L26.852 18.102L28.8059 20.0559L20.4605 28.4012L12.1152 20.0559L14.069 18.102L19.079 23.1113V2.5H21.8421Z" fill="black"/>
</svg>
