<svg width="40" height="40" viewBox="0 0 40 40" fill="none" xmlns="http://www.w3.org/2000/svg">
<path d="M36.282 12.0217C32.3726 3.56436 27.2462 1.80307 23.7531 2.97185C22.4494 3.40806 21.7248 4.25443 21.0251 5.07371C20.0913 6.16374 19.0364 7.39993 16.1748 8.35741C13.3129 9.31499 11.7267 8.96251 10.3249 8.65393C9.26959 8.42189 8.18155 8.18202 6.88139 8.61704C3.38823 9.78584 0.354985 14.281 2.32146 23.3847C3.73824 29.9316 5.36098 33.5294 7.43622 34.7113C8.30383 35.2061 9.2344 35.291 10.202 34.9673C12.5749 34.1733 13.4692 32.266 14.4235 30.233C14.7567 29.5252 15.0999 28.7911 15.5314 28.0391C16.624 26.126 18.1389 25.4076 19.6122 24.9147C19.8872 24.8227 20.1543 24.741 20.4111 24.6624C20.6647 24.5852 20.9113 24.5103 21.1422 24.433L21.8856 24.1842C22.1164 24.107 22.3552 24.0196 22.6041 23.9287C22.8566 23.8367 23.119 23.7413 23.394 23.6493C24.8672 23.1564 26.5106 22.8217 28.5333 23.6887C29.3306 24.0296 30.0464 24.4093 30.7521 24.781C32.7241 25.8234 34.5862 26.8084 36.9591 26.0144C37.93 25.6896 38.6221 25.0617 39.0139 24.1456C39.9598 21.9528 39.0941 18.1017 36.282 12.0217ZM14.7995 25.8023L14.7999 25.8002L14.8018 25.7994L14.7995 25.8023ZM15.2027 17.9582C15.4072 18.5694 15.0776 19.2306 14.4664 19.4351L12.8376 19.98L13.3826 21.6088C13.5871 22.22 13.2575 22.8812 12.6463 23.0857L12.5173 23.1288C11.9062 23.3333 11.245 23.0037 11.0405 22.3925L10.4955 20.7637L8.86679 21.3087C8.25567 21.5132 7.59446 21.1835 7.38996 20.5724L7.34681 20.4434C7.14231 19.8322 7.47195 19.1711 8.08313 18.9666L9.71187 18.4216L9.16691 16.7929C8.96243 16.1817 9.29207 15.5206 9.90325 15.3161L10.0322 15.2729C10.6434 15.0684 11.3045 15.3981 11.509 16.0092L12.054 17.6379L13.6828 17.093C14.2939 16.8885 14.9551 17.2181 15.1596 17.8293L15.2027 17.9582ZM26.4669 15.4664C25.6183 15.7503 24.7034 15.2942 24.4194 14.4455C24.1355 13.5969 24.5917 12.682 25.4403 12.3981C26.289 12.1141 27.2038 12.5702 27.4878 13.4188C27.7718 14.2676 27.3156 15.1824 26.4669 15.4664ZM31.1313 17.1459C30.2759 17.4321 29.3504 16.9707 29.0641 16.1152C28.7779 15.2599 29.2394 14.3344 30.0948 14.0481C30.9501 13.762 31.8757 14.2234 32.1619 15.0788C32.448 15.9342 31.9866 16.8597 31.1313 17.1459Z" fill="url(#paint0_linear_141_280)"/>
<defs>
<linearGradient id="paint0_linear_141_280" x1="14.3511" y1="2.75577" x2="23.6492" y2="30.5449" gradientUnits="userSpaceOnUse">
<stop stop-color="#FCE44B" stop-opacity="0.8"/>
<stop offset="1" stop-color="#FD8D26" stop-opacity="0"/>
</linearGradient>
</defs>
</svg>
