<?xml version="1.0" encoding="UTF-8"?>
<svg width="100px" height="100px" viewBox="0 0 100 100" version="1.1" xmlns="http://www.w3.org/2000/svg" xmlns:xlink="http://www.w3.org/1999/xlink">
    <title>zhaopin</title>
    <g id="页面-1" stroke="none" stroke-width="1" fill="none" fill-rule="evenodd">
        <g id="zhaopin">
            <rect id="矩形" fill="#FF0000" opacity="0" x="0" y="0" width="100" height="100"></rect>
            <path d="M72,67 L72,94 L2,94 L2,12 L22,12 L22,15 L5,15 L5,91 L69,91 L69,67 L72,67 Z M69,15 L52,15 L52,12 L72,12 L72,25 L69,25 L69,15 Z" id="形状结合" fill="#333333" fill-rule="nonzero"></path>
            <path d="M66,24 C78.1502645,24 88,33.8497355 88,46 C88,58.1502645 78.1502645,68 66,68 C53.8497355,68 44,58.1502645 44,46 C44,33.8497355 53.8497355,24 66,24 Z M66,27 C55.5065898,27 47,35.5065898 47,46 C47,56.4934102 55.5065898,65 66,65 C76.4934102,65 85,56.4934102 85,46 C85,35.5065898 76.4934102,27 66,27 Z" id="椭圆形" fill="#333333" fill-rule="nonzero"></path>
            <path d="M66,31 C69.8659932,31 73,34.1340068 73,38 C73,41.8659932 69.8659932,45 66,45 C62.1340068,45 59,41.8659932 59,38 C59,34.1340068 62.1340068,31 66,31 Z M66,34 C63.790861,34 62,35.790861 62,38 C62,40.209139 63.790861,42 66,42 C68.209139,42 70,40.209139 70,38 C70,35.790861 68.209139,34 66,34 Z" id="椭圆形" fill="#333333" fill-rule="nonzero"></path>
            <path d="M71,46 C74.3137085,46 77,48.6862915 77,52 L77,59 L55,59 L55,52 C55,48.6862915 57.6862915,46 61,46 L71,46 Z M71,49 L61,49 C59.4023191,49 58.0963391,50.24892 58.0050927,51.8237272 L58,52 L58,56 L74,56 L74,52 C74,50.4023191 72.75108,49.0963391 71.1762728,49.0050927 L71,49 Z" id="矩形" fill="#333333" fill-rule="nonzero"></path>
            <path d="M55,6 L55,21 L19,21 L19,6 L55,6 Z M52,9 L22,9 L22,18 L52,18 L52,9 Z" id="矩形" fill="#333333" fill-rule="nonzero"></path>
            <rect id="矩形" fill="#333333" x="10" y="55" width="30" height="3"></rect>
            <path d="M23.5,24 L27.4675505,32.0391353 L36.339263,33.3282706 L29.9196315,39.5858647 L31.4351009,48.4217294 L23.5,44.25 L15.5648991,48.4217294 L17.0803685,39.5858647 L10.660737,33.3282706 L19.5324495,32.0391353 L23.5,24 Z M25.4753539,34.7811586 L23.5,30.778 L21.5246461,34.7811586 L17.108,35.422 L20.3038102,38.538505 L19.55,42.937 L23.5,40.8606728 L27.451,42.937 L26.6961898,38.538505 L29.893,35.422 L25.4753539,34.7811586 Z" id="星形" fill="#333333" fill-rule="nonzero"></path>
            <rect id="矩形备份-14" fill="#333333" x="10" y="64" width="37" height="3"></rect>
            <rect id="矩形备份-15" fill="#333333" x="10" y="73" width="54" height="3"></rect>
            <rect id="矩形备份-16" fill="#333333" x="10" y="82" width="54" height="3"></rect>
            <rect id="矩形" fill="#333333" transform="translate(79.500000, 66.500000) rotate(-35.000000) translate(-79.500000, -66.500000) " x="78" y="62" width="3" height="9"></rect>
            <path d="M93.4880075,66.0625464 L93.4880075,90.0625464 L81.4880075,90.0625464 L81.4880075,66.0625464 L93.4880075,66.0625464 Z M90.489,69.062 L84.489,69.062 L84.489,87.062 L90.489,87.062 L90.489,69.062 Z" id="矩形备份-17" fill="#333333" fill-rule="nonzero" transform="translate(87.488007, 78.062546) rotate(-35.000000) translate(-87.488007, -78.062546) "></path>
        </g>
    </g>
</svg>