<svg width="32" height="32" viewBox="0 0 32 32" fill="none" xmlns="http://www.w3.org/2000/svg">
<path fill-rule="evenodd" clip-rule="evenodd" d="M9.19446 18.1697H14.7472C15.9254 18.1697 16.8805 19.1248 16.8805 20.303V26.6663L24.0847 14.5576H18.5805C17.4023 14.5576 16.4472 13.6024 16.4472 12.4242V5.51036L9.19446 18.1697ZM7.23568 18.6383C6.98105 19.0827 7.30192 19.6363 7.81414 19.6363H14.7472C15.1154 19.6363 15.4139 19.9348 15.4139 20.303V29.5756C15.4139 30.253 16.3071 30.4987 16.6535 29.9165L26.0644 14.0984C26.3288 13.654 26.0086 13.0909 25.4915 13.0909H18.5805C18.2123 13.0909 17.9139 12.7924 17.9139 12.4242V2.5047C17.9139 1.82145 17.0084 1.58045 16.6687 2.17329L7.23568 18.6383Z" fill="#333333"/>
</svg>
