<?xml version="1.0" encoding="UTF-8"?>
<svg width="30px" height="30px" viewBox="0 0 30 30" version="1.1" xmlns="http://www.w3.org/2000/svg" xmlns:xlink="http://www.w3.org/1999/xlink">
    <title>icon-个人下载-默认</title>
    <g id="页面-1" stroke="none" stroke-width="1" fill="none" fill-rule="evenodd">
        <g id="icon-个人下载-默认">
            <rect id="矩形备份-7" fill-opacity="0.2" fill="#FF0000" opacity="0" x="0" y="0" width="30" height="30"></rect>
            <g id="icon-个人下载-默认" transform="translate(5.000000, 3.500000)" fill="#ffffff">
                <path d="M10.0786456,0 L19.9988478,1.97963453 L19.9988478,13.4497132 C19.5782735,16.8978361 16.3261973,19.665386 13.6431417,21.3927856 L13.1762602,21.6867502 L12.7253452,21.9586808 L12.2945496,22.2081384 L11.8880262,22.4346838 C11.8225257,22.4705076 11.7582096,22.5053584 11.6951643,22.5392272 L11.1644076,22.8172813 L10.7162955,23.0408189 L9.99942389,23.3731836 L9.6337928,23.2081188 L9.14282834,22.9718889 L8.83393265,22.8165067 L8.30300886,22.5380911 L7.7034544,22.206589 L7.27254866,21.956831 L6.82152846,21.6845826 C6.74491307,21.6373582 6.66763271,21.5892151 6.58977395,21.5401625 L6.1163731,21.2350064 C3.56193796,19.550084 0.592509509,16.952665 0.044718852,13.7441248 L0.000544686969,13.4415429 L0,1.97334037 L10.0786456,0 Z M10.073,2.038 L1.999,3.62 L2,13.295 L2.01920536,13.4245769 C2.33353832,15.2176063 3.81216855,17.0725472 6.14050996,18.8103528 L6.43595546,19.0269555 C7.40744555,19.7267274 8.44120521,20.3521718 9.46467284,20.8906968 L9.72757496,21.0271836 L9.999,21.164 L10.3535118,20.9854708 L10.6348058,20.8381878 C11.7273963,20.2579372 12.8192479,19.5853164 13.8286664,18.8348901 C16.1798288,17.0869788 17.6640485,15.2266017 17.9801536,13.4315874 L17.998,13.309 L17.998,3.619 L10.073,2.038 Z" id="路径备份-2" fill-rule="nonzero"></path>
                <path d="M11.9516001,11.784696 C11.9516001,11.784696 13.0582225,14.9287502 11.3785289,16.9835515 C11.3785289,16.9835515 19.7938821,13.6768174 13.0397031,9.87369198 L11.9516001,11.784696 Z" id="Fill-3备份-2" opacity="0.7"></path>
                <path d="M11.788188,13.8733163 C13.0972524,12.5706671 13.9079281,10.7689637 13.9079281,8.77789074 C13.9079281,6.49062912 12.8383445,4.45331829 11.1722076,3.13850447 C11.0472322,4.68093692 10.3659498,6.06607589 9.3291079,7.09311343 L5.29206965,11.2163333 C4.08740364,12.4364926 3.3432402,14.1101341 3.3432402,15.9577123 C3.3432402,17.7151145 4.01671537,19.3149812 5.1191618,20.5141398 C5.41801338,20.7320751 5.71632028,20.9389351 6.0100276,21.1340541 C6.38646681,19.7540594 7.13414046,18.5273033 8.14144823,17.5700462 L11.788188,13.8733163 Z" id="Fill-5备份-2"></path>
                <path d="M14.2498281,11.6498073 C14.2498281,13.3502594 13.5194029,14.8798615 12.3554674,15.9427273 L9.3091542,19.0348547 C8.4806248,19.8695573 7.90228828,20.9562683 7.6986964,22.1700124 C9.07439412,22.9498226 9.99933311,23.3731654 9.99945415,23.3731654 C9.9998778,23.3729838 12.6604921,22.2673298 15.1955863,20.3367171 C16.2043465,19.1591644 16.8140328,17.629865 16.8140328,15.9577365 C16.8140328,13.7688816 15.7697469,11.8242281 14.1523897,10.5940223 C14.2152708,10.9365699 14.2498281,11.2890429 14.2498281,11.6498073 Z" id="Fill-7备份-2"></path>
            </g>
        </g>
    </g>
</svg>