<?xml version="1.0" encoding="UTF-8"?>
<svg width="30px" height="30px" viewBox="0 0 30 30" version="1.1" xmlns="http://www.w3.org/2000/svg" xmlns:xlink="http://www.w3.org/1999/xlink">
    <title>icon-联系方式-默认</title>
    <g id="页面-1" stroke="none" stroke-width="1" fill="none" fill-rule="evenodd">
        <g id="icon-联系方式-默认">
            <rect id="矩形备份-29" fill-opacity="0.2" fill="#FF0000" opacity="0" x="0" y="0" width="30" height="30"></rect>
            <g id="icon-联系电话-默认" transform="translate(5.000000, 5.000000)" fill="#ffffff" fill-rule="nonzero">
                <path d="M15.9358337,8.28434181 C15.9983492,8.63267973 15.8698199,8.98782654 15.5986615,9.21600185 C15.3275031,9.44417717 14.954911,9.51071574 14.621237,9.39055311 C14.2875631,9.27039049 14.0435003,8.98178225 13.9809848,8.63344432 C13.7630624,7.41926086 12.9951215,6.57151123 11.8960775,6.35759309 C11.3622712,6.24884528 11.0160475,5.7312924 11.1202494,5.19784568 C11.2244514,4.66439896 11.7401441,4.31437997 12.2758285,4.41351304 C14.2152887,4.79084085 15.5789174,6.29619066 15.9358337,8.28434181 Z" id="路径"></path>
                <path d="M12.3522751,0.0153166583 C16.3304768,0.716987943 19.1689293,3.74303816 19.9810503,7.85155375 C20.0871493,8.38825989 19.7369964,8.90914409 19.1989618,9.01498117 C18.6609273,9.12081825 18.1387538,8.77152986 18.0326548,8.23482371 C17.3734269,4.89730473 15.1420797,2.51895107 12.0062798,1.96583406 C11.4663261,1.87052598 11.1060609,1.35662533 11.2016048,0.818004834 C11.2971488,0.279384334 11.8123214,-0.0799914008 12.3522751,0.0153166583 L12.3522751,0.0153166583 Z" id="路径"></path>
                <path d="M15.0147061,19.9996394 C14.6552626,19.9996394 14.3174723,19.943341 14.0143271,19.8329096 C13.6245691,19.7289741 10.2943032,18.7329258 5.78177138,14.2182286 C1.40565481,9.84427739 0.307836359,6.40141478 0.188743628,5.99649949 C-0.0147966777,5.48331808 -0.0559378032,4.85753991 0.076146863,4.23609238 C0.208231529,3.61247953 0.502715375,3.04733038 0.903300018,2.64674574 L2.60524342,0.944802339 C3.00366274,0.546383018 3.51900947,0.325520133 4.05600943,0.325520133 C4.67745695,0.325520133 5.262094,0.622169302 5.66267864,1.13751603 L8.15496472,4.35085447 C8.57503727,4.89218507 8.62483968,5.7756366 8.27189213,6.3646043 L7.05498094,8.38051945 C7.16974303,8.76161619 7.56599703,9.70569675 8.89983563,11.1196523 C10.3830815,12.5249465 11.3055088,12.8735634 11.6086539,12.9536803 L13.6353957,11.7302732 C13.8822425,11.5808659 14.2027102,11.4985837 14.5361698,11.4985837 C14.9562424,11.4985837 15.3611577,11.6241724 15.6469802,11.8450353 L18.8603186,14.3394867 C19.3453509,14.7162528 19.6311734,15.2424261 19.6679839,15.8227325 C19.7047944,16.4030389 19.4860968,16.9616921 19.0530323,17.3947566 L17.3532543,19.0945347 C16.7967664,19.6531878 15.9003229,19.9996394 15.0147061,19.9996394 L15.0147061,19.9996394 Z" id="路径"></path>
            </g>
        </g>
    </g>
</svg>