<svg width="32" height="32" viewBox="0 0 32 32" fill="none" xmlns="http://www.w3.org/2000/svg">
<path d="M27.1528 4.04796L16.184 2.01671C16.064 1.99448 15.9409 1.99443 15.8209 2.01655L4.78961 4.0478C4.31514 4.13514 3.9707 4.5488 3.9707 5.03124V18.0312C3.9707 20.0811 4.61611 21.9971 5.88902 23.7261C6.87839 25.0701 8.24573 26.2971 9.95308 27.3733C12.8069 29.1721 15.626 29.9347 15.7446 29.9663C15.9154 30.0118 16.0952 30.0112 16.2657 29.9646C16.3836 29.9323 19.1863 29.1539 22.0234 27.3474C23.7205 26.2667 25.0797 25.0391 26.0631 23.6984C27.3289 21.9729 27.9707 20.0661 27.9707 18.0312V5.03124C27.9707 4.54918 27.6268 4.13574 27.1528 4.04796ZM25.9707 18.0312C25.9707 20.9597 24.2944 23.5181 20.9883 25.6354C18.8773 26.9874 16.729 27.7273 15.9985 27.957C14.3959 27.4643 5.9707 24.561 5.9707 18.0312V5.86393L16.0014 4.01693L25.9707 5.86305V18.0312Z" fill="#333333"/>
<path d="M11.7247 14.3278C11.3342 13.9372 10.701 13.9372 10.3105 14.3278C9.91995 14.7183 9.91995 15.3514 10.3105 15.742L14.2799 19.7113C14.4765 19.908 14.7347 20.0055 14.9925 20.0041C15.2502 20.0055 15.5084 19.908 15.7051 19.7113L22.1824 13.484C22.5729 13.0935 22.5729 12.4603 22.1824 12.0698C21.7919 11.6792 21.1587 11.6792 20.7682 12.0698L15.0062 17.6093L11.7247 14.3278Z" fill="#333333"/>
</svg>
