<svg width="40" height="40" viewBox="0 0 40 40" fill="none" xmlns="http://www.w3.org/2000/svg">
<path d="M31.8187 35.807H7.94189C5.75778 35.807 3.97656 34.0246 3.97656 31.839V7.94647C3.97656 5.76091 5.75778 3.97852 7.94189 3.97852H31.8399C34.024 3.97852 35.8052 5.76091 35.8052 7.94647V31.8603C35.784 34.0246 34.0028 35.807 31.8187 35.807Z" fill="#FF7A00"/>
<path d="M35.8053 29.7596H3.97656L3.97664 7.92726C3.97664 5.74059 5.73782 3.97852 7.92339 3.97852H31.8585C34.0441 3.97852 35.8053 5.74059 35.8053 7.92726V29.7596Z" fill="url(#paint0_linear_450_82)"/>
<path fill-rule="evenodd" clip-rule="evenodd" d="M32.3593 29.8388H7.44629V29.6797H32.3593V29.8388Z" fill="url(#paint1_linear_450_82)"/>
<path d="M14.3786 14.8215L14.3718 14.4805L10.7979 14.5555L10.8069 14.9306L10.8365 15.3444C11.0495 17.5976 12.0958 19.6903 13.7707 21.2125C15.4456 22.7348 17.6284 23.577 19.8918 23.5743C24.9161 23.5743 28.9857 19.5185 28.9857 14.5191H25.3822L25.3731 14.8601C25.1958 18.0362 23.1224 19.8868 19.8895 19.8868C16.6521 19.8868 14.5377 18.0248 14.3786 14.8215Z" fill="white"/>
<path d="M10.7979 11.8723C10.7979 10.8857 11.5976 10.0859 12.5842 10.0859C13.5708 10.0859 14.3706 10.8857 14.3706 11.8723V14.8724H10.7979V11.8723Z" fill="#FFE0B9"/>
<path d="M25.3828 11.8876C25.3828 10.8926 26.1894 10.0859 27.1844 10.0859C28.1795 10.0859 28.9861 10.8926 28.9861 11.8876V14.8724H25.3828V11.8876Z" fill="#FFE0B9"/>
<defs>
<linearGradient id="paint0_linear_450_82" x1="19.2181" y1="3.97852" x2="19.2186" y2="29.7596" gradientUnits="userSpaceOnUse">
<stop stop-color="#FFB45F"/>
<stop offset="1" stop-color="#FD8900"/>
</linearGradient>
<linearGradient id="paint1_linear_450_82" x1="7.7099" y1="29.7593" x2="32.3593" y2="29.7593" gradientUnits="userSpaceOnUse">
<stop stop-color="#FFE0B9" stop-opacity="0.088347"/>
<stop offset="0.491672" stop-color="#FFE0B9"/>
<stop offset="1" stop-color="#FFE0B9" stop-opacity="0"/>
</linearGradient>
</defs>
</svg>
