<svg width="40" height="40" viewBox="0 0 40 40" fill="none" xmlns="http://www.w3.org/2000/svg">
<rect x="18.333" y="20.833" width="20" height="17.5" rx="6.66667" fill="#FFA924"/>
<path fill-rule="evenodd" clip-rule="evenodd" d="M29.9997 19.0767H33.3333C35.6345 19.0767 37.5 20.8756 37.5 23.0946V32.7374C37.5 34.9564 35.6345 36.7553 33.3333 36.7553H6.66667C4.36548 36.7553 2.5 34.9564 2.5 32.7374V23.0946C2.5 20.8756 4.36548 19.0767 6.66667 19.0767H10.833V16.666H6.66667C2.98477 16.666 0 19.5442 0 23.0946V32.7374C0 36.2878 2.98477 39.166 6.66667 39.166H33.3333C37.0152 39.166 40 36.2878 40 32.7374V23.0946C40 19.5442 37.0152 16.666 33.3333 16.666H29.9997V19.0767Z" fill="black"/>
<path d="M20.4173 4.75488L28.0577 13.56H23.413V24.0394H17.4216V13.56H12.7768L20.4173 4.75488ZM20.4173 2.50001C19.9042 2.49792 19.4114 2.73157 19.0464 3.14984L11.406 11.9549C11.1331 12.2698 10.947 12.6715 10.8711 13.1092C10.7953 13.5469 10.8332 14.0008 10.98 14.4135C11.1268 14.8262 11.3759 15.1791 11.6958 15.4274C12.0157 15.6757 12.3919 15.8083 12.7768 15.8084H15.4774V25.1593C15.4772 25.3074 15.5021 25.4541 15.5508 25.591C15.5995 25.7279 15.671 25.8524 15.7612 25.9572C15.8514 26.062 15.9585 26.1452 16.0765 26.2019C16.1944 26.2587 16.3209 26.2879 16.4486 26.2879H24.3841C24.5118 26.2879 24.6382 26.2587 24.7562 26.2019C24.8741 26.1452 24.9813 26.062 25.0715 25.9572C25.1617 25.8524 25.2332 25.7279 25.2819 25.591C25.3306 25.4541 25.3555 25.3074 25.3553 25.1593V15.8084H28.0559C28.4408 15.8083 28.817 15.6757 29.1369 15.4274C29.4568 15.179 29.7059 14.8262 29.8527 14.4135C29.9995 14.0008 30.0374 13.5469 29.9616 13.1092C29.8857 12.6715 29.6996 12.2698 29.4267 11.9549L21.7862 3.14984C21.4213 2.73157 20.9285 2.49793 20.4154 2.50001H20.4173ZM24.3038 28.5774H16.5308C16.3995 28.5708 16.2685 28.595 16.1456 28.6487C16.0227 28.7024 15.9104 28.7843 15.8156 28.8897C15.7207 28.995 15.6452 29.1216 15.5936 29.2617C15.542 29.4017 15.5155 29.5525 15.5155 29.7048C15.5155 29.8571 15.542 30.0079 15.5936 30.148C15.6452 30.2881 15.7207 30.4146 15.8156 30.52C15.9104 30.6253 16.0227 30.7073 16.1456 30.761C16.2685 30.8146 16.3995 30.8389 16.5308 30.8323H24.3038C24.435 30.8389 24.566 30.8146 24.6889 30.761C24.8119 30.7073 24.9241 30.6253 25.019 30.52C25.1139 30.4146 25.1894 30.2881 25.2409 30.148C25.2925 30.0079 25.3191 29.8571 25.3191 29.7048C25.3191 29.5525 25.2925 29.4017 25.2409 29.2617C25.1894 29.1216 25.1139 28.995 25.019 28.8897C24.9241 28.7843 24.8119 28.7024 24.6889 28.6487C24.566 28.595 24.435 28.5708 24.3038 28.5774Z" fill="black"/>
</svg>
